{
  "title": "Scream Queens 2015 S02E01 1080p WEB-DL HEVC DD5.1 x265",
  "uid": 15875335,
  "size": 732643283,
  "categoryP": "video",
  "categoryS": "hd___tv_shows",
  "magnet": "?xt=urn:btih:d5541732fd8dd901790e22d7495023eaeed35a7e&amp;dn=Scream+Queens+2015+S02E01+1080p+WEB-DL+HEVC+DD5.1+x265&amp;tr=udp%3A%2F%2Ftracker.leechers-paradise.org%3A6969&amp;tr=udp%3A%2F%2Fzer0day.ch%3A1337&amp;tr=udp%3A%2F%2Fopen.demonii.com%3A1337&amp;tr=udp%3A%2F%2Ftracker.coppersurfer.tk%3A6969&amp;tr=udp%3A%2F%2Fexodus.desync.com%3A6969",
  "seeders": 36,
  "leechers": 4,
  "uploader": "nayhtut",
  "files": 1,
  "time": 1474496711,
  "description": "[Screenshots Gallery Link]\r\n\r\n[http://postimg.org/gallery/3fdlyr7e8]\r\n\r\nSource:Scream Queens 2015 S02E01 Scream Again 1080p WEB-DL DD5 1 H264(1.66 GB)\r\n\r\n \r\nComplete name: Scream.Queens.2015.S02E01.Scream.Again.1080p.WEB-DL.HEVC.DD5.1.x265.mkv\r\nFormat                                   : Matroska\r\nFormat version                           : Version 4 / Version 2\r\nFile size                                : 699 MiB\r\nDuration                                 : 42mn 43s\r\nOverall bit rate                         : 2 286 Kbps\r\nWriting application                      : Lavf57.25.100\r\nWriting library                          : Lavf57.25.100\r\n\r\nVideo\r\n\r\nID                                       : 1\r\nFormat                                   : V_MPEGH/ISO/HEVC\r\nCodec ID                                 : V_MPEGH/ISO/HEVC\r\nDuration                                 : 42mn 43s\r\nBit rate                                 : 1 857 Kbps\r\nWidth                                    : 1 920 pixels\r\nHeight                                   : 1 080 pixels\r\nDisplay aspect ratio                     : 16:9\r\nFrame rate                               : 25.000 fps\r\nBits/(Pixel*Frame)                       : 0.036\r\nStream size                              : 567 MiB (81%)\r\nWriting library                          : Lavc57.48.101 libx265\r\nLanguage                                 : English\r\nDefault                                  : Yes\r\nForced                                   : No\r\nDURATION                                 : 00:42:43.651000000\r\n\r\nAudio\r\n\r\nID                                       : 2\r\nFormat                                   : AC-3\r\nFormat/Info                              : Audio Coding 3\r\nMode extension                           : CM (complete main)\r\nFormat settings, Endianness              : Big\r\nCodec ID                                 : A_AC3\r\nDuration                                 : 42mn 43s\r\nBit rate mode                            : Constant\r\nBit rate                                 : 384 Kbps\r\nChannel(s)                               : 6 channels\r\nChannel positions                        : Front: L C R, Side: L R, LFE\r\nSampling rate                            : 48.0 KHz\r\nBit depth                                : 16 bits\r\nCompression mode                         : Lossy\r\nStream size                              : 117 MiB (17%)\r\nWriting library                          : Lavc57.24.102 ac3\r\nLanguage                                 : English\r\nDefault                                  : Yes\r\nForced                                   : No\r\nDURATION                                 : 00:42:43.679000000\r\n\r\nText\r\n\r\nID                                       : 3\r\nFormat                                   : ASS\r\nCodec ID                                 : S_TEXT/ASS\r\nLanguage                                 : English",
  "parsed": {
    "xt": "urn:btih:d5541732fd8dd901790e22d7495023eaeed35a7e",
    "dn": "Scream Queens 2015 S02E01 1080p WEB-DL HEVC DD5.1 x265",
    "tr": [
      "udp://exodus.desync.com:6969",
      "udp://open.demonii.com:1337",
      "udp://tracker.coppersurfer.tk:6969",
      "udp://tracker.leechers-paradise.org:6969",
      "udp://zer0day.ch:1337"
    ],
    "infoHash": "d5541732fd8dd901790e22d7495023eaeed35a7e",
    "infoHashBuffer": {
      "type": "Buffer",
      "data": [
        213,
        84,
        23,
        50,
        253,
        141,
        217,
        1,
        121,
        14,
        34,
        215,
        73,
        80,
        35,
        234,
        238,
        211,
        90,
        126
      ]
    },
    "name": "Scream Queens 2015 S02E01 1080p WEB-DL HEVC DD5.1 x265",
    "announce": [
      "udp://exodus.desync.com:6969",
      "udp://open.demonii.com:1337",
      "udp://tracker.coppersurfer.tk:6969",
      "udp://tracker.leechers-paradise.org:6969",
      "udp://zer0day.ch:1337"
    ],
    "urlList": []
  },
  "previous": 16,
  "peers": 13,
  "last_updated": "2016-12-27T14:14:41.832Z"
}